<svg width="40" height="40" viewBox="0 0 40 40" fill="none" xmlns="http://www.w3.org/2000/svg">
<path d="M1 20C1 9.50659 9.50659 1 20 1C30.4934 1 39 9.50659 39 20C39 30.4934 30.4934 39 20 39C9.50659 39 1 30.4934 1 20Z" fill="#262626" stroke="#4D4D4D" stroke-width="2"/>
<mask id="mask0_112_49" style="mask-type:alpha" maskUnits="userSpaceOnUse" x="12" y="12" width="16" height="16">
<path fill-rule="evenodd" clip-rule="evenodd" d="M27.0742 15.1068C26.8837 14.6164 26.6299 14.2009 26.2144 13.7855C25.7989 13.37 25.3835 13.1161 24.893 12.9257C24.4199 12.7411 23.8717 12.6141 23.0812 12.5795L23.0677 12.5789C22.282 12.5447 22.0195 12.5333 19.9999 12.5333C17.9688 12.5333 17.7149 12.5391 16.9186 12.5795C16.1223 12.6141 15.5799 12.7411 15.1067 12.9257C14.6163 13.1161 14.2008 13.37 13.7853 13.7855C13.3699 14.2009 13.116 14.6164 12.9256 15.1068C12.7409 15.58 12.614 16.1282 12.5794 16.9187L12.5788 16.9321C12.5446 17.7179 12.5332 17.9803 12.5332 20C12.5332 22.0311 12.539 22.285 12.5794 23.0813C12.614 23.8776 12.7409 24.42 12.9256 24.8931C13.116 25.3836 13.3699 25.7991 13.7853 26.2145C14.2008 26.63 14.6163 26.8839 15.1067 27.0743C15.5799 27.2589 16.1281 27.3859 16.9186 27.4205L16.932 27.4211C17.7178 27.4552 17.9802 27.4667 19.9999 27.4667C22.031 27.4667 22.2849 27.4609 23.0812 27.4205C23.8775 27.3859 24.4199 27.2589 24.893 27.0743C25.3835 26.8839 25.7989 26.63 26.2144 26.2145C26.6299 25.7991 26.8837 25.3836 27.0742 24.8931C27.2588 24.42 27.3858 23.8718 27.4204 23.0813L27.421 23.0679C27.4551 22.2821 27.4665 22.0197 27.4665 20C27.4665 17.9689 27.4608 17.715 27.4204 16.9187C27.3858 16.1224 27.2588 15.58 27.0742 15.1068ZM25.5577 22.7578C25.526 23.4222 25.4153 23.7861 25.3204 24.0233C25.1991 24.3397 25.0462 24.5717 24.8089 24.809C24.5716 25.0463 24.3449 25.194 24.0232 25.3205C23.7807 25.4154 23.4221 25.5262 22.7577 25.5578L22.7234 25.5593H22.7233C22.0281 25.5898 21.7951 25.6 19.9999 25.6C18.1754 25.6 17.9592 25.5947 17.2421 25.5578C16.5776 25.5262 16.2138 25.4154 15.9765 25.3205C15.6601 25.1992 15.4281 25.0463 15.1908 24.809C14.9535 24.5717 14.8059 24.345 14.6793 24.0233C14.5844 23.7808 14.4737 23.4222 14.4421 22.7578L14.4408 22.7293C14.4101 22.0294 14.3999 21.795 14.3999 20C14.3999 18.1808 14.4051 17.9593 14.4421 17.2422C14.4737 16.5778 14.5844 16.2139 14.6793 15.9766C14.8006 15.6603 14.9535 15.4282 15.1908 15.191C15.4281 14.9537 15.6549 14.806 15.9765 14.6795C16.2191 14.5845 16.5776 14.4738 17.2421 14.4422L17.2706 14.4409C17.9705 14.4103 18.2048 14.4 19.9999 14.4C21.8191 14.4 22.0405 14.4053 22.7577 14.4422C23.4221 14.4738 23.7859 14.5845 24.0232 14.6795C24.3396 14.8007 24.5716 14.9537 24.8089 15.191C25.0462 15.4282 25.1938 15.655 25.3204 15.9766C25.4153 16.2192 25.526 16.5778 25.5577 17.2422L25.5589 17.2707C25.5896 17.9706 25.5999 18.2049 25.5999 20C25.5999 21.8018 25.5895 22.0363 25.5586 22.7374V22.7374L25.5577 22.7578ZM24.6665 16.2667C24.6665 16.7821 24.2487 17.2 23.7332 17.2C23.2177 17.2 22.7999 16.7821 22.7999 16.2667C22.7999 15.7512 23.2177 15.3333 23.7332 15.3333C24.2487 15.3333 24.6665 15.7512 24.6665 16.2667ZM19.9999 16.2667C17.9395 16.2667 16.2665 17.9396 16.2665 20C16.2665 22.0603 17.9395 23.7333 19.9999 23.7333C22.0602 23.7333 23.7332 22.0603 23.7332 20C23.7332 17.9396 22.0602 16.2667 19.9999 16.2667ZM18.1332 20C18.1332 21.0327 18.9715 21.8667 19.9999 21.8667C21.0283 21.8667 21.8665 21.0284 21.8665 20C21.8665 18.9673 21.0326 18.1333 19.9999 18.1333C18.9672 18.1333 18.1332 18.9716 18.1332 20Z" fill="white"/>
</mask>
<g mask="url(#mask0_112_49)">
<rect x="7.8667" y="7.8667" width="24.2667" height="24.2667" fill="#737373"/>
</g>
</svg>
