<svg width="40" height="40" viewBox="0 0 40 40" fill="none" xmlns="http://www.w3.org/2000/svg">
<path d="M1 20C1 9.50659 9.50659 1 20 1C30.4934 1 39 9.50659 39 20C39 30.4934 30.4934 39 20 39C9.50659 39 1 30.4934 1 20Z" fill="#262626" stroke="#4D4D4D" stroke-width="2"/>
<mask id="mask0_111_68" style="mask-type:alpha" maskUnits="userSpaceOnUse" x="11" y="13" width="18" height="15">
<path fill-rule="evenodd" clip-rule="evenodd" d="M28.4001 15.1235C27.782 15.4051 27.1183 15.5952 26.4204 15.6798C27.1319 15.2425 27.6786 14.5501 27.9364 13.7251C27.27 14.1295 26.5327 14.4246 25.7477 14.5824C25.1186 13.8958 24.2227 13.4667 23.2307 13.4667C21.3271 13.4667 19.7848 15.0487 19.7848 17.0006C19.7848 17.2774 19.8147 17.5477 19.8735 17.8061C17.0089 17.6586 14.4694 16.2516 12.769 14.1134C12.4729 14.6357 12.3027 15.2425 12.3027 15.8903C12.3027 17.1169 12.9114 18.1981 13.8356 18.8324C13.2711 18.8136 12.7396 18.6553 12.2749 18.3904C12.2744 18.4049 12.2744 18.4205 12.2744 18.4345C12.2744 20.1474 13.4622 21.5759 15.0392 21.9006C14.7504 21.9808 14.4458 22.0244 14.1312 22.0244C13.9086 22.0244 13.6933 22.0024 13.4832 21.9614C13.9212 23.3647 15.1946 24.3867 16.7023 24.4158C15.5234 25.3634 14.0372 25.9294 12.4225 25.9294C12.1441 25.9294 11.8695 25.9127 11.6001 25.8798C13.1251 26.8814 14.9368 27.4667 16.8834 27.4667C23.2228 27.4667 26.6903 22.0815 26.6903 17.4109C26.6903 17.258 26.6861 17.1051 26.6798 16.9532C27.3535 16.4551 27.9375 15.8332 28.4001 15.1235Z" fill="white"/>
</mask>
<g mask="url(#mask0_111_68)">
<rect x="7.8667" y="7.8667" width="24.2667" height="24.2667" fill="#737373"/>
</g>
</svg>
